# Blender v2.82 (sub 7) OBJ File: 'STONE#2.blend'
# www.blender.org
mtllib STONE#2.mtl
o Cube.001
v -0.841942 0.155490 -0.092456
v -0.834658 0.236417 -0.031380
v -0.613271 0.151006 0.113423
v -0.671402 0.241275 0.127215
v -0.707774 0.122177 0.019498
v -0.759287 0.238721 0.071987
v -0.068319 0.139806 0.400812
v -0.101082 0.238339 0.424427
v -0.458731 0.135671 0.162246
v -0.454218 0.240936 0.227595
v -0.469265 0.085779 0.023654
v -0.185480 0.116522 0.273794
v -0.246461 0.235942 0.341472
v -0.207422 0.063615 0.034018
v -0.822777 0.349097 -0.075564
v -0.609416 0.407306 0.139985
v -0.687703 0.459285 0.019027
v -0.550293 0.584977 -0.027540
v -0.090496 0.397069 0.416499
v -0.457381 0.480031 0.197536
v -0.375319 0.579775 0.155588
v -0.531053 0.544170 0.097883
v -0.457643 0.612644 0.031528
v -0.190396 0.475556 0.320887
v -0.191897 0.595603 0.193781
v -0.195651 0.648786 0.029505
v -0.866501 0.127748 -0.227781
v -0.875626 0.252375 -0.237736
v -0.801040 0.106485 -0.332575
v -0.827805 0.194200 -0.381642
v -0.719809 0.072643 -0.229003
v -0.808028 0.333256 -0.320750
v -0.715937 0.086067 -0.471782
v -0.767036 0.248661 -0.467632
v -0.622584 0.112701 -0.595996
v -0.632674 0.230936 -0.610441
v -0.473552 0.035117 -0.227759
v -0.469107 0.019275 -0.477200
v -0.211207 0.021558 -0.226259
v -0.211832 0.001592 -0.482378
v -0.456250 0.087707 -0.652656
v -0.452905 0.228336 -0.708556
v -0.209130 0.073160 -0.683963
v -0.202817 0.225737 -0.748453
v -0.821507 0.346347 -0.200436
v -0.712050 0.465694 -0.244801
v -0.586654 0.578187 -0.160961
v -0.654897 0.408170 -0.464218
v -0.596660 0.350977 -0.592844
v -0.554433 0.557064 -0.316557
v -0.469137 0.608570 -0.234150
v -0.471940 0.522398 -0.444795
v -0.444601 0.576490 -0.339122
v -0.146304 0.598793 -0.339585
v -0.220206 0.633611 -0.238688
v -0.221358 0.554126 -0.453772
v -0.320623 0.594555 -0.353265
v -0.453879 0.385086 -0.634103
v -0.200821 0.407601 -0.670176
v 0.078720 0.124631 0.449585
v 0.083525 0.231678 0.516777
v 0.324993 0.110321 0.479395
v 0.327361 0.229412 0.546059
v 0.066656 0.073371 0.287585
v 0.058123 0.039694 0.037933
v 0.324323 0.048924 0.294489
v 0.321926 0.028801 0.039396
v 0.564736 0.117510 0.440536
v 0.561708 0.221937 0.512722
v 0.668239 0.137446 0.389891
v 0.697668 0.222034 0.417625
v 0.569535 0.075192 0.288769
v 0.574676 0.053196 0.041964
v 0.704938 0.122386 0.283872
v 0.763578 0.222795 0.284197
v 0.712984 0.113337 0.045683
v 0.762157 0.216005 0.058442
v 0.080281 0.417879 0.455743
v 0.328951 0.408813 0.498942
v 0.071033 0.544813 0.329367
v 0.067283 0.599183 0.207635
v 0.064456 0.640193 0.035148
v 0.334000 0.537666 0.280314
v 0.248975 0.586940 0.188926
v 0.407726 0.562091 0.039671
v 0.274514 0.599294 0.037489
v 0.562663 0.364213 0.462718
v 0.692710 0.330750 0.375005
v 0.576775 0.464294 0.289241
v 0.575516 0.490757 0.041288
v 0.740064 0.356207 0.281691
v 0.747211 0.369969 0.046155
v 0.054766 0.011700 -0.224926
v 0.049198 0.008582 -0.478303
v 0.316442 0.019469 -0.221618
v 0.325141 0.060206 -0.489073
v 0.400290 0.135279 -0.557301
v 0.043595 0.076907 -0.664922
v 0.044673 0.223851 -0.740282
v 0.246444 0.095394 -0.621984
v 0.315922 0.206084 -0.644897
v 0.570742 0.078430 -0.204326
v 0.639142 0.148758 -0.271214
v 0.480921 0.096216 -0.412656
v 0.543842 0.204362 -0.459508
v 0.683700 0.117587 -0.107182
v 0.710027 0.216318 -0.193981
v 0.669266 0.282212 -0.342380
v 0.440417 0.261531 -0.588091
v 0.063495 0.591115 -0.314452
v 0.063745 0.625640 -0.183263
v 0.061096 0.530812 -0.476896
v 0.329332 0.562503 -0.223080
v 0.247774 0.599454 -0.141312
v 0.315546 0.487102 -0.467733
v 0.054253 0.395677 -0.668315
v 0.304094 0.373635 -0.631430
v 0.570772 0.465589 -0.212080
v 0.541645 0.377569 -0.440573
v 0.708560 0.356515 -0.201279
v 0.662933 0.328091 -0.337209
v 0.434365 0.340948 -0.576194
vt 0.049007 0.604991
vt 0.005066 0.643129
vt 0.018075 0.605132
vt 0.042564 0.669836
vt 0.013178 0.690479
vt 0.937407 0.120061
vt 0.911508 0.191653
vt 0.910850 0.116721
vt 0.041704 0.187660
vt 0.113072 0.255333
vt 0.035041 0.290382
vt 0.937592 0.064645
vt 0.914080 0.039266
vt 0.040695 0.131239
vt 0.086868 0.167808
vt 0.254166 0.648085
vt 0.217695 0.622696
vt 0.254166 0.595919
vt 0.785520 0.119539
vt 0.801316 0.066762
vt 0.829288 0.099173
vt 0.826636 0.194650
vt 0.694416 0.254768
vt 0.760270 0.215787
vt 0.745923 0.279770
vt 0.763761 0.157784
vt 0.726858 0.133479
vt 0.759427 0.096396
vt 0.856950 0.050084
vt 0.885261 0.993097
vt 0.855072 0.956653
vt 0.888529 0.955244
vt 0.890085 0.905649
vt 0.169560 0.018231
vt 0.143512 0.056237
vt 0.126863 0.008667
vt 0.075748 0.768743
vt 0.025380 0.789511
vt 0.045970 0.743608
vt 0.255537 0.110521
vt 0.200210 0.224164
vt 0.170871 0.137333
vt 0.830934 0.787505
vt 0.888730 0.714212
vt 0.883212 0.795713
vt 0.875723 0.856700
vt 0.833147 0.859170
vt 0.316960 0.096138
vt 0.286514 0.194856
vt 0.279042 0.047819
vt 0.226139 0.030445
vt 0.633155 0.090218
vt 0.610059 0.121944
vt 0.578629 0.097878
vt 0.587574 0.159399
vt 0.566365 0.216920
vt 0.539432 0.176422
vt 0.648428 0.129372
vt 0.610763 0.208030
vt 0.688824 0.102536
vt 0.677642 0.050369
vt 0.596789 0.036717
vt 0.511522 0.076101
vt 0.545214 0.036582
vt 0.928016 0.399776
vt 0.910662 0.310264
vt 0.937592 0.313566
vt 0.141862 0.343331
vt 0.085652 0.460463
vt 0.058777 0.374746
vt 0.255031 0.640429
vt 0.276285 0.596007
vt 0.276285 0.654022
vt 0.994718 0.657381
vt 0.960867 0.570453
vt 0.998425 0.577913
vt 0.199648 0.515053
vt 0.133428 0.586469
vt 0.115853 0.541436
vt 0.878467 0.474621
vt 0.897266 0.394840
vt 0.005890 0.397757
vt 0.023817 0.482435
vt 0.997301 0.545529
vt 0.093545 0.586469
vt 0.064412 0.557572
vt 0.606683 0.448425
vt 0.679061 0.419515
vt 0.695029 0.459836
vt 0.749917 0.383180
vt 0.712227 0.364352
vt 0.657649 0.338448
vt 0.554359 0.557426
vt 0.660435 0.538439
vt 0.631458 0.589311
vt 0.832720 0.382293
vt 0.786020 0.279974
vt 0.842516 0.295201
vt 0.668129 0.587750
vt 0.716512 0.559061
vt 0.763761 0.489882
vt 0.315028 0.281865
vt 0.258910 0.399383
vt 0.230055 0.312235
vt 0.834678 0.628963
vt 0.886943 0.584541
vt 0.890085 0.639606
vt 0.343003 0.433590
vt 0.313775 0.502710
vt 0.282683 0.486468
vt 0.263128 0.535410
vt 0.975869 0.770402
vt 0.925590 0.789146
vt 0.951669 0.736474
vt 0.383051 0.391249
vt 0.350689 0.372847
vt 0.386955 0.332404
vt 0.980840 0.889734
vt 0.933895 0.894067
vt 0.954188 0.841896
vt 0.572468 0.371230
vt 0.543364 0.287400
vt 0.586627 0.306529
vt 0.454132 0.345411
vt 0.533092 0.385333
vt 0.441592 0.474940
vt 0.498840 0.463799
vt 0.479555 0.509210
vt 0.400218 0.317959
vt 0.489710 0.263040
vt 0.398158 0.367459
vt 0.427101 0.421329
vt 0.937288 0.260731
vt 0.910452 0.243802
vt 0.005719 0.343823
vt 0.771733 0.182504
vt 0.856877 0.236861
vt 0.831856 0.703843
vt 0.378115 0.260113
vt 0.462969 0.151498
vt 0.001856 0.738316
vt 0.084195 0.032447
vt 0.061368 0.088933
vt 0.171405 0.430682
vt 0.989955 0.711513
vt 0.957030 0.646610
vt 0.214767 0.562221
vt 0.216497 0.688924
vt 0.173064 0.632135
vt 0.216497 0.596522
vt 0.171757 0.689006
vt 0.128082 0.636014
vt 0.171757 0.596524
vt 0.732945 0.171578
vt 0.626477 0.405688
vt 0.580836 0.502080
vt 0.914447 0.007660
vt 0.045759 0.629524
vt 0.082670 0.685457
vt 0.808743 0.962731
vt 0.776853 0.892900
vt 0.832351 0.924491
vt 0.080899 0.728324
vt 0.771031 0.718916
vt 0.778804 0.802485
vt 0.791711 0.852785
vt 0.816247 0.508288
vt 0.825727 0.464187
vt 0.914351 0.571259
vt 0.927586 0.544865
vt 0.967108 0.531928
vt 0.788444 0.569363
vt 0.777175 0.640505
vt 0.901862 0.736659
vt 0.893446 0.832764
vt 0.831064 0.532906
vt 0.847229 0.560994
vt 0.006336 0.279679
vt 0.830632 0.016242
vt 0.045576 0.815829
vt 0.355639 0.174224
vt 0.289368 0.655555
vt 0.276792 0.619329
vt 0.289368 0.596029
vt 0.903348 0.480286
vt 0.995948 0.834038
vt 0.998425 0.926925
vt 0.956208 0.926062
vt 0.425644 0.233024
vt 0.125571 0.737911
vt 0.109615 0.598398
vt 0.125571 0.645509
vt 0.664229 0.008709
vt 0.856681 0.518343
vt 0.902669 0.649528
vt 0.909702 0.787227
vt 0.906306 0.889283
vt 0.897646 0.919789
vn -0.4952 -0.1722 0.8515
vn -0.4084 -0.7878 0.4610
vn -0.3461 -0.6684 0.6583
vn -0.8748 -0.0566 0.4812
vn -0.7735 -0.5341 0.3411
vn -0.2643 -0.7699 0.5809
vn -0.4901 -0.2195 0.8436
vn -0.4374 -0.1859 0.8798
vn -0.0989 -0.9732 0.2075
vn -0.2888 -0.8506 0.4393
vn -0.1292 -0.9515 0.2790
vn -0.3586 -0.6880 0.6308
vn -0.2644 0.7900 0.5531
vn -0.4946 0.6885 0.5304
vn -0.4275 0.3906 0.8153
vn -0.3468 0.4983 0.7946
vn -0.0516 0.9903 0.1290
vn -0.1275 0.8661 0.4834
vn -0.4703 0.8677 0.1612
vn -0.6896 0.6080 0.3934
vn -0.5459 0.3135 0.7770
vn -0.8142 -0.5805 0.0095
vn -0.8789 -0.0939 -0.4677
vn -0.6013 -0.7618 -0.2408
vn -0.5741 -0.7005 -0.4238
vn -0.2679 -0.9587 0.0950
vn -0.7893 0.5157 -0.3332
vn -0.9752 0.1969 -0.1007
vn -0.1513 -0.9740 -0.1686
vn -0.0532 -0.9924 0.1105
vn -0.1062 -0.9864 0.1249
vn -0.2821 0.0290 -0.9589
vn -0.0441 -0.7214 -0.6911
vn -0.2204 -0.6854 -0.6940
vn -0.5184 -0.5347 -0.6673
vn -0.6203 0.0553 -0.7824
vn -0.0319 -0.9889 -0.1454
vn -0.4189 0.8438 -0.3354
vn -0.2004 0.9084 -0.3670
vn -0.2626 0.8206 -0.5076
vn -0.0951 0.9274 -0.3617
vn 0.0459 0.9426 -0.3308
vn -0.0389 0.8730 -0.4862
vn -0.2117 0.9644 -0.1579
vn -0.0223 0.9848 -0.1720
vn -0.4943 0.8688 -0.0291
vn -0.6689 0.7272 -0.1538
vn -0.5846 0.6574 -0.4754
vn -0.2487 0.6167 -0.7468
vn -0.5051 0.5131 -0.6940
vn -0.0025 -0.7661 0.6426
vn -0.2503 -0.1249 0.9601
vn -0.1989 -0.7625 0.6156
vn -0.0777 -0.9882 0.1321
vn 0.0072 -0.9793 0.2022
vn -0.1406 -0.9637 0.2267
vn 0.2786 -0.7666 0.5786
vn 0.7372 -0.0813 0.6707
vn 0.3640 -0.1208 0.9235
vn 0.7011 -0.7104 -0.0616
vn 0.9641 -0.1435 0.2233
vn 0.6426 -0.7429 0.1875
vn 0.2626 -0.9649 0.0025
vn 0.2171 -0.9599 0.1772
vn 0.0085 -0.1202 0.9927
vn 0.5589 -0.6652 0.4951
vn 0.3332 0.9424 0.0296
vn 0.1894 0.9489 0.2525
vn 0.2140 0.9042 0.3695
vn -0.0537 0.8182 0.5723
vn 0.0327 0.9456 0.3235
vn 0.0835 0.9931 0.0826
vn 0.8628 0.5031 -0.0499
vn 0.4138 0.8583 0.3033
vn 0.8181 0.5138 0.2583
vn 0.0777 0.5837 0.8082
vn -0.1866 0.5155 0.8363
vn 0.6814 0.4584 0.5705
vn 0.3925 0.5627 0.7275
vn 0.0804 -0.9796 -0.1841
vn 0.1390 -0.9886 -0.0581
vn -0.0047 -0.9983 0.0583
vn 0.1480 -0.0422 -0.9881
vn 0.2907 -0.6960 -0.6565
vn 0.1292 -0.7405 -0.6595
vn 0.4741 -0.8034 -0.3602
vn 0.6935 -0.6091 -0.3848
vn 0.3858 -0.9007 -0.1995
vn 0.6877 -0.6999 -0.1928
vn 0.8400 -0.0851 -0.5358
vn 0.9254 -0.2543 -0.2810
vn 0.5154 -0.5875 -0.6239
vn 0.2859 -0.9101 -0.2999
vn 0.6099 -0.0638 -0.7899
vn 0.7224 -0.3016 -0.6222
vn 0.2281 0.9652 -0.1277
vn 0.1295 0.9464 -0.2959
vn 0.1142 0.9803 -0.1610
vn 0.2940 0.8468 -0.4433
vn 0.2998 0.9293 -0.2157
vn 0.7667 0.4121 -0.4923
vn 0.5079 0.8325 -0.2215
vn 0.8622 0.4419 -0.2476
vn 0.3216 0.5066 -0.7999
vn 0.1066 0.8771 -0.4683
vn 0.5556 0.4197 -0.7177
vn 0.6276 0.5302 -0.5700
vn -0.4695 -0.1351 0.8725
vn -0.3848 0.3700 0.8455
vn -0.0615 0.0031 -0.9981
vn -0.0603 0.6357 -0.7695
vn 0.0358 -0.9972 0.0651
vn 0.9822 -0.1708 -0.0778
vn -0.8352 0.4812 0.2660
vn -0.2732 0.9366 0.2193
vn 0.2330 0.9716 0.0416
vn 0.4887 0.8724 -0.0089
vn -0.6931 -0.1226 0.7103
vn -0.7817 0.1634 -0.6019
vn -0.8033 0.5908 -0.0744
vn 0.1024 0.6168 -0.7804
vn 0.4003 -0.1845 -0.8976
usemtl Material.002
s 1
f 4/1/1 5/2/2 3/3/3
f 5/2/2 2/4/4 1/5/5
f 9/6/6 13/7/7 10/8/8
f 9/9/6 14/10/9 12/11/10
f 3/12/3 10/8/8 4/13/1
f 3/14/3 11/15/11 9/9/6
f 7/16/12 13/17/7 12/18/10
f 21/19/13 22/20/14 20/21/15
f 24/22/16 21/19/13 20/21/15
f 26/23/17 21/24/13 25/25/18
f 22/26/14 18/27/19 17/28/20
f 22/20/14 16/29/21 20/21/15
f 27/30/22 30/31/23 29/32/24
f 30/31/23 33/33/25 29/32/24
f 29/34/24 31/35/26 27/36/22
f 32/37/27 30/38/23 28/39/28
f 38/40/29 39/41/30 37/42/31
f 42/43/32 43/44/33 41/45/34
f 31/35/26 38/40/29 37/42/31
f 42/43/32 35/46/35 36/47/36
f 33/33/25 36/47/36 35/46/35
f 41/48/34 40/49/37 38/40/29
f 35/50/35 38/40/29 33/51/25
f 50/52/38 53/53/39 52/54/40
f 57/55/41 54/56/42 56/57/43
f 57/55/41 52/54/40 53/53/39
f 57/55/41 51/58/44 55/59/45
f 47/60/46 50/52/38 46/61/47
f 50/52/38 48/62/48 46/61/47
f 56/57/43 58/63/49 52/54/40
f 52/54/40 49/64/50 48/62/48
f 62/65/51 61/66/52 60/67/53
f 65/68/54 66/69/55 64/70/56
f 68/71/57 71/72/58 69/73/59
f 76/74/60 75/75/61 74/76/62
f 73/77/63 74/78/62 72/79/64
f 62/65/51 69/80/59 63/81/65
f 66/69/55 73/77/63 72/79/64
f 60/82/53 66/69/55 62/83/51
f 75/75/61 70/84/66 74/76/62
f 72/79/64 70/85/66 68/86/57
f 66/69/55 68/86/57 62/83/51
f 85/87/67 84/88/68 83/89/69
f 80/90/70 84/88/68 81/91/71
f 84/88/68 82/92/72 81/91/71
f 92/93/73 89/94/74 91/95/75
f 89/94/74 85/87/67 83/89/69
f 79/96/76 80/97/70 78/98/77
f 88/99/78 89/94/74 87/100/79
f 89/94/74 79/101/76 87/100/79
f 94/102/80 95/103/81 93/104/82
f 99/105/83 100/106/84 98/107/85
f 104/108/86 103/109/87 102/110/88
f 103/109/87 106/111/89 102/110/88
f 103/112/87 108/113/90 107/114/91
f 97/115/92 104/108/86 96/116/93
f 95/103/81 104/108/86 102/110/88
f 100/117/84 97/115/92 96/116/93
f 94/102/80 100/117/84 96/116/93
f 97/118/92 109/119/94 105/120/95
f 114/121/96 110/122/97 111/123/98
f 115/124/99 110/122/97 113/125/100
f 121/126/101 118/127/102 120/128/103
f 118/127/102 115/124/99 113/125/100
f 117/129/104 112/130/105 115/124/99
f 122/131/106 115/124/99 119/132/107
f 7/133/12 61/66/52 8/134/108
f 12/11/10 65/68/54 64/70/56
f 7/135/12 64/70/56 60/82/53
f 80/97/70 25/136/18 24/22/16
f 82/92/72 25/25/18 81/91/71
f 80/97/70 19/137/109 78/98/77
f 40/49/37 93/104/82 39/41/30
f 99/105/83 43/44/33 44/138/110
f 40/49/37 98/139/85 94/102/80
f 111/123/98 54/56/42 55/59/45
f 112/130/105 54/56/42 110/122/97
f 112/130/105 59/140/111 56/57/43
f 1/5/5 28/39/28 27/141/22
f 1/142/5 31/35/26 5/143/2
f 37/42/31 14/10/9 11/15/11
f 31/35/26 11/15/11 5/143/2
f 93/104/82 67/144/112 65/68/54
f 106/145/89 77/146/113 76/74/60
f 73/77/63 106/111/89 76/147/60
f 95/103/81 73/77/63 67/144/112
f 17/148/20 47/149/46 46/150/47
f 46/151/47 15/152/114 17/153/20
f 55/59/45 23/154/115 26/23/17
f 51/58/44 18/27/19 23/154/115
f 114/121/96 85/87/67 113/125/100
f 114/121/96 82/92/72 86/155/116
f 120/128/103 90/156/117 92/93/73
f 118/127/102 85/87/67 90/156/117
f 16/29/21 6/157/118 4/13/1
f 6/158/118 15/159/114 2/4/4
f 13/7/7 20/21/15 10/8/8
f 19/137/109 13/7/7 8/134/108
f 10/8/8 16/29/21 4/13/1
f 32/160/27 48/161/48 34/162/119
f 45/163/120 32/37/27 28/39/28
f 59/164/111 42/43/32 58/165/49
f 34/162/119 49/166/50 36/47/36
f 49/166/50 42/43/32 36/47/36
f 61/66/52 79/96/76 78/98/77
f 69/80/59 88/167/78 87/168/79
f 77/146/113 91/169/75 75/75/61
f 75/75/61 88/170/78 71/171/58
f 69/80/59 79/96/76 63/81/65
f 117/172/104 99/105/83 116/173/121
f 108/113/90 120/174/103 107/114/91
f 119/175/107 108/113/90 105/120/95
f 109/119/94 119/175/107 105/120/95
f 117/172/104 109/176/94 101/177/122
f 15/159/114 28/39/28 2/4/4
f 120/174/103 77/146/113 107/114/91
f 61/66/52 19/137/109 8/134/108
f 116/173/121 44/138/110 59/164/111
f 39/41/30 65/68/54 14/10/9
f 111/123/98 26/23/17 82/92/72
f 4/1/1 6/158/118 5/2/2
f 5/2/2 6/158/118 2/4/4
f 9/9/6 12/11/10 13/178/7
f 9/9/6 11/15/11 14/10/9
f 3/12/3 9/6/6 10/8/8
f 3/14/3 5/143/2 11/15/11
f 7/133/12 8/134/108 13/7/7
f 21/24/13 23/154/115 22/26/14
f 24/22/16 25/136/18 21/19/13
f 26/23/17 23/154/115 21/24/13
f 22/26/14 23/154/115 18/27/19
f 22/20/14 17/179/20 16/29/21
f 27/141/22 28/39/28 30/38/23
f 30/31/23 34/162/119 33/33/25
f 29/34/24 33/51/25 31/35/26
f 32/37/27 34/180/119 30/38/23
f 38/40/29 40/49/37 39/41/30
f 42/43/32 44/138/110 43/44/33
f 31/35/26 33/51/25 38/40/29
f 42/43/32 41/45/34 35/46/35
f 33/33/25 34/162/119 36/47/36
f 41/48/34 43/181/33 40/49/37
f 35/50/35 41/48/34 38/40/29
f 50/52/38 51/58/44 53/53/39
f 57/55/41 55/59/45 54/56/42
f 57/55/41 56/57/43 52/54/40
f 57/55/41 53/53/39 51/58/44
f 47/60/46 51/58/44 50/52/38
f 50/52/38 52/54/40 48/62/48
f 56/57/43 59/140/111 58/63/49
f 52/54/40 58/63/49 49/64/50
f 62/65/51 63/81/65 61/66/52
f 65/68/54 67/144/112 66/69/55
f 68/182/57 70/183/66 71/184/58
f 76/74/60 77/146/113 75/75/61
f 73/77/63 76/147/60 74/78/62
f 62/65/51 68/185/57 69/80/59
f 66/69/55 67/144/112 73/77/63
f 60/82/53 64/70/56 66/69/55
f 75/75/61 71/171/58 70/84/66
f 72/79/64 74/78/62 70/85/66
f 66/69/55 72/79/64 68/86/57
f 85/87/67 86/155/116 84/88/68
f 80/90/70 83/89/69 84/88/68
f 84/88/68 86/155/116 82/92/72
f 92/93/73 90/156/117 89/94/74
f 89/94/74 90/156/117 85/87/67
f 79/101/76 83/89/69 80/90/70
f 88/99/78 91/95/75 89/94/74
f 89/94/74 83/89/69 79/101/76
f 94/102/80 96/116/93 95/103/81
f 99/105/83 101/177/122 100/106/84
f 104/186/86 105/120/95 103/112/87
f 103/112/87 107/114/91 106/145/89
f 103/112/87 105/120/95 108/113/90
f 97/118/92 105/120/95 104/186/86
f 95/103/81 96/116/93 104/108/86
f 100/187/84 101/188/122 97/118/92
f 94/102/80 98/139/85 100/117/84
f 97/118/92 101/188/122 109/119/94
f 114/121/96 113/125/100 110/122/97
f 115/124/99 112/130/105 110/122/97
f 121/126/101 119/132/107 118/127/102
f 118/127/102 119/132/107 115/124/99
f 117/129/104 116/189/121 112/130/105
f 122/131/106 117/129/104 115/124/99
f 7/133/12 60/67/53 61/66/52
f 12/11/10 14/10/9 65/68/54
f 7/135/12 12/11/10 64/70/56
f 80/90/70 81/91/71 25/25/18
f 82/92/72 26/23/17 25/25/18
f 80/97/70 24/22/16 19/137/109
f 40/49/37 94/102/80 93/104/82
f 99/105/83 98/107/85 43/44/33
f 40/49/37 43/181/33 98/139/85
f 111/123/98 110/122/97 54/56/42
f 112/130/105 56/57/43 54/56/42
f 112/130/105 116/189/121 59/140/111
f 1/5/5 2/4/4 28/39/28
f 1/142/5 27/36/22 31/35/26
f 37/42/31 39/41/30 14/10/9
f 31/35/26 37/42/31 11/15/11
f 93/104/82 95/103/81 67/144/112
f 106/145/89 107/114/91 77/146/113
f 73/77/63 102/110/88 106/111/89
f 95/103/81 102/110/88 73/77/63
f 17/28/20 18/27/19 47/60/46
f 46/190/47 45/163/120 15/159/114
f 55/59/45 51/58/44 23/154/115
f 51/58/44 47/60/46 18/27/19
f 114/121/96 86/155/116 85/87/67
f 114/121/96 111/123/98 82/92/72
f 120/128/103 118/127/102 90/156/117
f 118/127/102 113/125/100 85/87/67
f 16/191/21 17/192/20 6/158/118
f 6/158/118 17/192/20 15/159/114
f 13/7/7 24/22/16 20/21/15
f 19/137/109 24/22/16 13/7/7
f 10/8/8 20/21/15 16/29/21
f 32/193/27 46/61/47 48/62/48
f 45/163/120 46/190/47 32/37/27
f 59/164/111 44/138/110 42/43/32
f 34/162/119 48/161/48 49/166/50
f 49/166/50 58/165/49 42/43/32
f 61/66/52 63/81/65 79/96/76
f 69/80/59 71/194/58 88/167/78
f 77/146/113 92/195/73 91/169/75
f 75/75/61 91/169/75 88/170/78
f 69/80/59 87/168/79 79/96/76
f 117/172/104 101/177/122 99/105/83
f 108/113/90 121/196/101 120/174/103
f 119/175/107 121/196/101 108/113/90
f 109/119/94 122/197/106 119/175/107
f 117/198/104 122/197/106 109/119/94
f 15/159/114 45/163/120 28/39/28
f 120/174/103 92/195/73 77/146/113
f 61/66/52 78/98/77 19/137/109
f 116/173/121 99/105/83 44/138/110
f 39/41/30 93/104/82 65/68/54
f 111/123/98 55/59/45 26/23/17
